
<svg xmlns="http://www.w3.org/2000/svg" xmlns:xlink="http://www.w3.org/1999/xlink" width="500" zoomAndPan="magnify" viewBox="0 0 375 374.999991" height="500" preserveAspectRatio="xMidYMid meet" version="1.0"><defs><g/><clipPath id="24ba962018"><path d="M 118.128906 99.101562 L 256.878906 99.101562 L 256.878906 237.851562 L 118.128906 237.851562 Z M 118.128906 99.101562 " clip-rule="nonzero"/></clipPath></defs><rect x="-37.5" width="450" fill="#ffffff" y="-37.499999" height="449.999989" fill-opacity="1"/><rect x="-37.5" width="450" fill="#000000" y="-37.499999" height="449.999989" fill-opacity="1"/><g clip-path="url(#24ba962018)"><path fill="#ffffff" d="M 253.9375 191.644531 C 252.484375 191.644531 251.308594 190.46875 251.308594 189.015625 L 251.308594 108.34375 L 206.667969 152.984375 C 205.640625 154.011719 203.972656 154.011719 202.945312 152.984375 C 201.921875 151.957031 201.921875 150.292969 202.945312 149.265625 L 252.078125 100.136719 C 252.828125 99.382812 253.960938 99.15625 254.945312 99.566406 C 255.925781 99.972656 256.566406 100.929688 256.566406 101.996094 L 256.566406 189.015625 C 256.566406 190.46875 255.390625 191.644531 253.9375 191.644531 Z M 121.074219 237.488281 C 119.621094 237.488281 118.441406 236.3125 118.441406 234.859375 L 118.441406 143.171875 C 118.441406 142.109375 119.082031 141.148438 120.066406 140.742188 C 121.050781 140.335938 122.179688 140.558594 122.933594 141.3125 L 168.777344 187.15625 C 169.804688 188.183594 169.804688 189.847656 168.777344 190.875 C 167.75 191.902344 166.082031 191.902344 165.054688 190.875 L 123.703125 149.519531 L 123.703125 234.859375 C 123.703125 236.3125 122.523438 237.488281 121.074219 237.488281 Z M 253.9375 237.488281 C 253.265625 237.488281 252.589844 237.230469 252.078125 236.71875 L 119.214844 103.851562 C 118.1875 102.828125 118.1875 101.160156 119.214844 100.136719 C 120.242188 99.109375 121.90625 99.109375 122.933594 100.136719 L 255.796875 233 C 256.824219 234.027344 256.824219 235.691406 255.796875 236.71875 C 255.28125 237.230469 254.609375 237.488281 253.9375 237.488281 " fill-opacity="1" fill-rule="nonzero"/></g><g fill="#fffbfa" fill-opacity="1"><g transform="translate(161.181997, 261.54845)"><g><path d="M 3.5 0 C 3.683594 0 3.777344 -0.09375 3.777344 -0.28125 L 3.777344 -4.046875 L 6.144531 -1.285156 C 6.273438 -1.132812 6.410156 -1.132812 6.53125 -1.285156 L 8.929688 -4.074219 L 8.929688 -0.28125 C 8.929688 -0.09375 9.027344 0 9.210938 0 L 11.378906 0 C 11.5625 0 11.65625 -0.09375 11.65625 -0.28125 L 11.65625 -10.257812 C 11.65625 -10.777344 11.296875 -10.898438 10.972656 -10.496094 L 6.339844 -4.703125 L 1.734375 -10.496094 C 1.402344 -10.921875 1.050781 -10.777344 1.050781 -10.257812 L 1.050781 -0.28125 C 1.050781 -0.09375 1.148438 0 1.332031 0 Z M 3.5 0 "/></g></g></g><g fill="#fffbfa" fill-opacity="1"><g transform="translate(185.090004, 261.54845)"><g><path d="M 6.300781 0.28125 C 9.722656 0.28125 12.007812 -1.871094 12.007812 -5.25 C 12.007812 -8.625 9.722656 -10.777344 6.300781 -10.777344 C 2.882812 -10.777344 0.613281 -8.625 0.613281 -5.25 C 0.613281 -1.871094 2.882812 0.28125 6.300781 0.28125 Z M 6.300781 -2.242188 C 4.566406 -2.242188 3.417969 -3.390625 3.417969 -5.25 C 3.417969 -7.105469 4.566406 -8.253906 6.300781 -8.253906 C 8.050781 -8.253906 9.210938 -7.105469 9.210938 -5.25 C 9.210938 -3.390625 8.050781 -2.242188 6.300781 -2.242188 Z M 6.300781 -2.242188 "/></g></g></g><g fill="#fffbfa" fill-opacity="1"><g transform="translate(208.922859, 261.54845)"><g><path d="M 3.554688 0 C 3.738281 0 3.832031 -0.09375 3.832031 -0.28125 L 3.832031 -10.214844 C 3.832031 -10.402344 3.738281 -10.496094 3.554688 -10.496094 L 1.320312 -10.496094 C 1.132812 -10.496094 1.039062 -10.402344 1.039062 -10.214844 L 1.039062 -0.28125 C 1.039062 -0.09375 1.132812 0 1.320312 0 Z M 3.554688 0 "/></g></g></g><g fill="#fffbfa" fill-opacity="1"><g transform="translate(169.011599, 274.029634)"><g><path d="M 0.792969 0 L 1.21875 0 L 1.21875 -2.183594 L 3.3125 -2.183594 L 3.3125 -2.574219 L 1.21875 -2.574219 L 1.21875 -4.5 L 3.492188 -4.5 L 3.492188 -4.898438 L 0.792969 -4.898438 Z M 0.792969 0 "/></g></g></g><g fill="#fffbfa" fill-opacity="1"><g transform="translate(175.731773, 274.029634)"><g><path d="M 2.976562 0.0898438 C 4.472656 0.0898438 5.503906 -0.953125 5.503906 -2.449219 C 5.503906 -3.949219 4.472656 -4.992188 2.976562 -4.992188 C 1.484375 -4.992188 0.449219 -3.949219 0.449219 -2.449219 C 0.449219 -0.953125 1.484375 0.0898438 2.976562 0.0898438 Z M 0.882812 -2.449219 C 0.882812 -3.710938 1.734375 -4.5625 2.976562 -4.5625 C 4.222656 -4.5625 5.074219 -3.710938 5.074219 -2.449219 C 5.074219 -1.195312 4.222656 -0.335938 2.976562 -0.335938 C 1.734375 -0.335938 0.882812 -1.195312 0.882812 -2.449219 Z M 0.882812 -2.449219 "/></g></g></g><g fill="#fffbfa" fill-opacity="1"><g transform="translate(184.482006, 274.029634)"><g><path d="M 2.976562 0.0898438 C 4.472656 0.0898438 5.503906 -0.953125 5.503906 -2.449219 C 5.503906 -3.949219 4.472656 -4.992188 2.976562 -4.992188 C 1.484375 -4.992188 0.449219 -3.949219 0.449219 -2.449219 C 0.449219 -0.953125 1.484375 0.0898438 2.976562 0.0898438 Z M 0.882812 -2.449219 C 0.882812 -3.710938 1.734375 -4.5625 2.976562 -4.5625 C 4.222656 -4.5625 5.074219 -3.710938 5.074219 -2.449219 C 5.074219 -1.195312 4.222656 -0.335938 2.976562 -0.335938 C 1.734375 -0.335938 0.882812 -1.195312 0.882812 -2.449219 Z M 0.882812 -2.449219 "/></g></g></g><g fill="#fffbfa" fill-opacity="1"><g transform="translate(193.23224, 274.029634)"><g><path d="M 0.792969 0 L 2.339844 0 C 3.898438 0 4.886719 -0.972656 4.886719 -2.449219 C 4.886719 -3.925781 3.898438 -4.898438 2.339844 -4.898438 L 0.792969 -4.898438 Z M 1.21875 -0.40625 L 1.21875 -4.492188 L 2.324219 -4.492188 C 3.632812 -4.492188 4.453125 -3.695312 4.453125 -2.449219 C 4.453125 -1.203125 3.640625 -0.40625 2.339844 -0.40625 Z M 1.21875 -0.40625 "/></g></g></g><g fill="#fffbfa" fill-opacity="1"><g transform="translate(201.366451, 274.029634)"><g><path d="M 2.367188 0.0898438 C 3.429688 0.0898438 4.101562 -0.425781 4.101562 -1.246094 C 4.101562 -1.945312 3.625 -2.378906 2.386719 -2.667969 C 1.359375 -2.898438 0.992188 -3.199219 0.992188 -3.6875 C 0.992188 -4.226562 1.457031 -4.585938 2.246094 -4.585938 C 3.066406 -4.585938 3.5625 -4.191406 3.597656 -3.5 L 4.019531 -3.5 C 3.984375 -4.445312 3.324219 -4.992188 2.246094 -4.992188 C 1.203125 -4.992188 0.566406 -4.472656 0.566406 -3.6875 C 0.566406 -2.953125 1.078125 -2.546875 2.28125 -2.269531 C 3.269531 -2.050781 3.667969 -1.75 3.667969 -1.238281 C 3.667969 -0.671875 3.171875 -0.316406 2.367188 -0.316406 C 1.519531 -0.316406 0.953125 -0.734375 0.910156 -1.457031 L 0.488281 -1.457031 C 0.523438 -0.511719 1.246094 0.0898438 2.367188 0.0898438 Z M 2.367188 0.0898438 "/></g></g></g></svg>